<svg width="30" height="20" fill="none" xmlns="http://www.w3.org/2000/svg">
    <path
        d="M27 13.031a6.89 6.89 0 0 0-2.358-5.11 5.803 5.803 0 0 0 .355-2.013c0-.377-.038-.749-.107-1.107C24.374 2.07 21.98 0 19.111 0h-6.958v12.821c0 2.468-2.11 4.478-4.704 4.478a7.26 7.26 0 0 1-.245-.006c-2.48-.12-4.46-2.081-4.46-4.47V3.785c0-.598.493-1.084 1.098-1.084h2.724a1.36 1.36 0 0 0 1.372-1.35c0-.745-.615-1.35-1.372-1.35H3.843C1.723.001 0 1.698 0 3.785v1.212h.001H0v7.826l.001.099C.06 16.834 3.376 20 7.45 20c4.107 0 7.449-3.22 7.449-7.177V2.7h4.213c.028 0 .055.001.08.005 1.695.043 3.06 1.463 3.06 3.203a3.199 3.199 0 0 1-.54 1.798c-.412.636-.308 1.336.325 1.69a4.21 4.21 0 0 1 2.22 3.718c0 2.153-1.606 3.93-3.66 4.161a4.408 4.408 0 0 1-.451.024H15.71c-.756 0-1.37.606-1.37 1.351 0 .747.614 1.35 1.37 1.35h4.435c3.777 0 6.853-3.09 6.853-6.885.003-.029.002-.056.002-.084Z"
        fill="#CC163F"></path>
</svg>